<svg xmlns="http://www.w3.org/2000/svg" version="1.1" xmlns:xlink="http://www.w3.org/1999/xlink" xmlns:svgjs="http://svgjs.dev/svgjs" width="1440" height="560" preserveAspectRatio="none" viewBox="0 0 1440 560"><g mask="url(&quot;#SvgjsMask1634&quot;)" fill="none"><rect width="1440" height="560" x="0" y="0" fill="url(&quot;#SvgjsLinearGradient1635&quot;)"></rect><path d="M1512 560L0 560 L0 375.15Q59.26 362.41, 72 421.67Q126.5 356.17, 192 410.67Q206.18 352.85, 264 367.02Q330.17 313.19, 384 379.35Q432.13 307.48, 504 355.61Q561.46 341.07, 576 398.53Q623.37 325.9, 696 373.27Q782.41 339.69, 816 426.1Q856.92 347.02, 936 387.95Q970.78 302.73, 1056 337.5Q1109.36 318.86, 1128 372.22Q1196.1 368.32, 1200 436.42Q1222.49 386.92, 1272 409.41Q1306.84 324.25, 1392 359.09Q1469.17 316.26, 1512 393.43z" fill="rgba(207, 209, 225, 1)"></path><path d="M1488 560L0 560 L0 497.06Q25.34 450.4, 72 475.75Q120.43 404.18, 192 452.61Q254.13 442.74, 264 504.86Q266.03 434.89, 336 436.93Q365.93 394.86, 408 424.79Q469.86 414.65, 480 476.51Q502.78 427.29, 552 450.08Q602.88 380.95, 672 431.83Q698.73 386.56, 744 413.29Q796.08 393.37, 816 445.44Q899.65 409.1, 936 492.75Q1004.57 441.32, 1056 509.89Q1057.13 439.01, 1128 440.14Q1182.48 374.62, 1248 429.1Q1319.61 380.71, 1368 452.32Q1449.44 413.76, 1488 495.21z" fill="rgba(222, 226, 232, 1)"></path><path d="M1512 560L0 560 L0 501.5Q63.12 444.63, 120 507.75Q195.36 511.11, 192 586.47Q231.76 506.23, 312 545.99Q386.82 500.81, 432 575.63Q474.1 545.73, 504 587.83Q512.06 523.89, 576 531.95Q630 465.95, 696 519.95Q757.66 509.61, 768 571.27Q793.05 524.32, 840 549.36Q883.38 472.75, 960 516.13Q1009.5 445.63, 1080 495.14Q1186.36 481.5, 1200 587.86Q1205.79 521.64, 1272 527.43Q1313.39 448.82, 1392 490.22Q1481.22 459.44, 1512 548.66z" fill="rgba(255, 255, 255, 1)"></path></g><defs><mask id="SvgjsMask1634"><rect width="1440" height="560" fill="#ffffff"></rect></mask><linearGradient x1="50%" y1="100%" x2="50%" y2="0%" gradientUnits="userSpaceOnUse" id="SvgjsLinearGradient1635"><stop stop-color="rgba(255, 255, 255, 1)" offset="0"></stop><stop stop-color="rgba(127, 214, 225, 1)" offset="1"></stop></linearGradient></defs></svg>