<svg xmlns="http://www.w3.org/2000/svg" version="1.1" xmlns:xlink="http://www.w3.org/1999/xlink" xmlns:svgjs="http://svgjs.dev/svgjs" width="1440" height="560" preserveAspectRatio="none" viewBox="0 0 1440 560"><g mask="url(&quot;#SvgjsMask1284&quot;)" fill="none"><rect width="1440" height="560" x="0" y="0" fill="url(&quot;#SvgjsLinearGradient1285&quot;)"></rect><path d="M1488 560L0 560 L0 355.45Q96.13 331.57, 120 427.7Q144.57 380.27, 192 404.85Q237.41 330.26, 312 375.67Q397.27 340.94, 432 426.21Q435.53 357.74, 504 361.27Q569.5 306.76, 624 372.26Q712.47 340.73, 744 429.19Q758.82 324.01, 864 338.83Q907.77 310.6, 936 354.36Q1000.09 346.44, 1008 410.53Q1077.85 360.38, 1128 430.22Q1154.26 336.48, 1248 362.74Q1318.06 312.8, 1368 382.85Q1440.17 335.02, 1488 407.19z" fill="rgba(124, 123, 109, 1)"></path><path d="M1488 560L0 560 L0 454.62Q14.45 397.07, 72 411.53Q115.13 382.65, 144 425.78Q198.64 408.42, 216 463.06Q266.68 441.74, 288 492.41Q288.1 420.51, 360 420.61Q440.22 428.83, 432 509.04Q473.77 430.81, 552 472.58Q593.82 394.4, 672 436.22Q716.85 409.07, 744 453.92Q817.04 406.97, 864 480.01Q869.46 413.47, 936 418.93Q1004.84 367.77, 1056 436.61Q1107.84 416.45, 1128 468.29Q1161.62 381.9, 1248 415.52Q1327.67 375.19, 1368 454.86Q1433.15 400.01, 1488 465.17z" fill="rgba(86, 86, 78, 1)"></path><path d="M1488 560L0 560 L0 495.43Q48.09 471.52, 72 519.61Q138.85 466.46, 192 533.31Q263.27 484.58, 312 555.85Q322.6 494.45, 384 505.04Q457.92 458.96, 504 532.88Q584.86 493.74, 624 574.6Q672.85 503.45, 744 552.31Q788.54 476.85, 864 521.39Q885.05 470.44, 936 491.48Q1021.67 457.15, 1056 542.82Q1139.31 506.13, 1176 589.44Q1194.82 536.26, 1248 555.08Q1290.89 477.97, 1368 520.86Q1420.45 453.31, 1488 505.75z" fill="rgba(68, 66, 60, 1)"></path></g><defs><mask id="SvgjsMask1284"><rect width="1440" height="560" fill="#ffffff"></rect></mask><linearGradient x1="50%" y1="100%" x2="50%" y2="0%" gradientUnits="userSpaceOnUse" id="SvgjsLinearGradient1285"><stop stop-color="rgba(117, 100, 63, 1)" offset="0"></stop><stop stop-color="rgba(32, 52, 54, 1)" offset="1"></stop></linearGradient></defs></svg>